<svg xmlns="http://www.w3.org/2000/svg" width="1200" height="420" viewBox="0 0 1200 420" font-family="'Noto Sans SC','Inter','Segoe UI','PingFang SC','Microsoft YaHei',sans-serif">
  <defs>
    <filter id="glow" x="-60%" y="-60%" width="220%" height="220%">
      <feGaussianBlur stdDeviation="3" result="b"/>
      <feMerge><feMergeNode in="b"/><feMergeNode in="SourceGraphic"/></feMerge>
    </filter>
    <radialGradient id="roseGlow" cx="50%" cy="50%" r="50%">
      <stop offset="0%" stop-color="#FF5C7A" stop-opacity="0.28"/>
      <stop offset="100%" stop-color="#FF5C7A" stop-opacity="0"/>
    </radialGradient>
    <pattern id="grid" width="60" height="60" patternUnits="userSpaceOnUse">
      <path d="M60 0 L0 0 0 60" fill="none" stroke="#FF5C7A" stroke-opacity="0.045" stroke-width="1"/>
    </pattern>
  </defs>
  <style>
    @import url('https://fonts.googleapis.com/css2?family=Noto+Sans+SC:wght@400;500;700;900&amp;family=Inter:wght@400;500;600;700&amp;display=swap');
  </style>
  <rect width="1200" height="420" fill="#0E0F13"/>
  <rect width="1200" height="420" fill="url(#grid)"/>
  <ellipse cx="240" cy="170" rx="320" ry="170" fill="url(#roseGlow)" opacity="0.55"/>
  <ellipse cx="1085" cy="210" rx="210" ry="210" fill="url(#roseGlow)"/>
  <g filter="url(#glow)" fill="#FF5C7A" fill-opacity="0.80">
    <rect x="36" y="40" width="1128" height="3"/>
    <rect x="36" y="72" width="40" height="3"/>
    <rect x="36" y="72" width="3" height="40"/>
    <rect x="1124" y="380" width="40" height="3"/>
    <rect x="1161" y="340" width="3" height="40"/>
  </g>
  <text x="80" y="205" font-size="96" font-weight="900" letter-spacing="6" fill="#FF5C7A" filter="url(#glow)">快捷</text>
  <text x="80" y="205" font-size="96" font-weight="900" letter-spacing="6"><tspan fill="#FF5C7A">快捷</tspan><tspan x="282" fill="#FFFFFF">互动</tspan></text>
  <text x="84" y="258" font-size="26" font-weight="600" letter-spacing="8" fill="#9AA0AA">QUICK · INTERACTION</text>
  <text x="84" y="305" font-size="24" font-weight="500" fill="#B8BEC8">Bondage Club 互动动作快捷插件</text>
  <text x="84" y="340" font-size="22" font-weight="400" fill="#8A909A">点选身体部位，动作一步到位</text>
  <rect x="84" y="366" width="150" height="40" rx="20" fill="rgba(255,92,122,0.12)" stroke="#FF5C7A" stroke-opacity="0.55" filter="url(#glow)"/>
  <text x="159" y="392" font-size="20" font-weight="700" fill="#FF5C7A" text-anchor="middle">v1.3.0</text>
  <g font-size="17" font-weight="500" fill="#D8DDE6" text-anchor="middle">
    <rect x="600" y="92" width="140" height="46" rx="10" fill="rgba(255,255,255,0.05)" stroke="rgba(255,255,255,0.10)"/>
    <text x="670" y="122">Body Zones</text>
    <rect x="600" y="158" width="140" height="46" rx="10" fill="rgba(255,255,255,0.05)" stroke="rgba(255,255,255,0.10)"/>
    <text x="670" y="188">Favorites</text>
    <rect x="600" y="224" width="140" height="46" rx="10" fill="rgba(255,255,255,0.05)" stroke="rgba(255,255,255,0.10)"/>
    <text x="670" y="254">Self Mode</text>
    <rect x="760" y="92" width="140" height="46" rx="10" fill="rgba(255,255,255,0.05)" stroke="rgba(255,255,255,0.10)"/>
    <text x="830" y="122">All-Room</text>
    <rect x="760" y="158" width="140" height="46" rx="10" fill="rgba(255,255,255,0.05)" stroke="rgba(255,255,255,0.10)"/>
    <text x="830" y="188">Combos</text>
    <rect x="760" y="224" width="140" height="46" rx="10" fill="rgba(255,255,255,0.05)" stroke="rgba(255,255,255,0.10)"/>
    <text x="830" y="254">ECHO</text>
    <rect x="920" y="92" width="140" height="46" rx="10" fill="rgba(255,92,122,0.10)" stroke="rgba(255,92,122,0.35)"/>
    <text x="990" y="122" fill="#FF8FA6">XiaoSu Pack</text>
    <rect x="920" y="158" width="140" height="46" rx="10" fill="rgba(255,255,255,0.05)" stroke="rgba(255,255,255,0.10)"/>
    <text x="990" y="188">LSCG</text>
    <rect x="920" y="224" width="140" height="46" rx="10" fill="rgba(255,255,255,0.05)" stroke="rgba(255,255,255,0.10)"/>
    <text x="990" y="254">Themes</text>
  </g>
  <g filter="url(#glow)" fill="none" stroke="#FF5C7A">
    <circle cx="1085" cy="210" r="64" stroke-opacity="0.30" stroke-width="1.5"/>
    <circle cx="1085" cy="210" r="40" stroke-opacity="0.20" stroke-width="1.5"/>
  </g>
  <circle cx="1085" cy="210" r="16" fill="#FF5C7A" fill-opacity="0.18"/>
  <circle cx="1085" cy="210" r="5" fill="#FF5C7A" filter="url(#glow)"/>
</svg>
